<svg width="40" height="40" viewBox="0 0 40 40" fill="none" xmlns="http://www.w3.org/2000/svg">
<g filter="url(#filter0_d_4001_8219)">
<path d="M2 19C2 9.05888 10.0589 1 20 1C29.9411 1 38 9.05888 38 19C38 28.9411 29.9411 37 20 37C10.0589 37 2 28.9411 2 19Z" fill="white"/>
<path d="M20 1.25C29.8031 1.25 37.75 9.19695 37.75 19C37.75 28.8031 29.8031 36.75 20 36.75C10.1969 36.75 2.25 28.8031 2.25 19C2.25 9.19695 10.1969 1.25 20 1.25Z" stroke="#E5E7EB" stroke-width="0.5"/>
<g clip-path="url(#clip0_4001_8219)">
<path d="M26.1875 19H13.8125" stroke="#101828" stroke-width="0.8" stroke-linecap="round" stroke-linejoin="round"/>
<path d="M18.875 13.9375L13.8125 19L18.875 24.0625" stroke="#101828" stroke-width="0.8" stroke-linecap="round" stroke-linejoin="round"/>
</g>
</g>
<defs>
<filter id="filter0_d_4001_8219" x="0" y="0" width="40" height="40" filterUnits="userSpaceOnUse" color-interpolation-filters="sRGB">
<feFlood flood-opacity="0" result="BackgroundImageFix"/>
<feColorMatrix in="SourceAlpha" type="matrix" values="0 0 0 0 0 0 0 0 0 0 0 0 0 0 0 0 0 0 127 0" result="hardAlpha"/>
<feOffset dy="1"/>
<feGaussianBlur stdDeviation="1"/>
<feComposite in2="hardAlpha" operator="out"/>
<feColorMatrix type="matrix" values="0 0 0 0 0.321569 0 0 0 0 0.345098 0 0 0 0 0.4 0 0 0 0.06 0"/>
<feBlend mode="normal" in2="BackgroundImageFix" result="effect1_dropShadow_4001_8219"/>
<feBlend mode="normal" in="SourceGraphic" in2="effect1_dropShadow_4001_8219" result="shape"/>
</filter>
<clipPath id="clip0_4001_8219">
<rect width="18" height="18" fill="white" transform="translate(11 10)"/>
</clipPath>
</defs>
</svg>
